<svg width="1920" height="806" viewBox="0 0 1920 806" fill="none" xmlns="http://www.w3.org/2000/svg">
<path d="M2053.27 -124V676.089C1430.25 826.175 983.248 764.515 720.81 735.825C294.115 689.179 -9.7301 764.943 -9.7301 764.943V-124H2053.27Z" fill="#21A2DF"/>
<path d="M1377.77 279C2096.27 -175 2017 608 1974 707C1931 806 1048 771.583 676.27 718C226.228 653.129 -23.9999 751.5 -23.9999 751.5C-23.9999 751.5 -306.5 480.4 -25 384.5C256.5 288.6 547.27 -136.5 828.27 -58.5001C1109.27 19.4999 659.27 733 1377.77 279Z" stroke="#0A1A3B" stroke-opacity="0.08" stroke-width="3"/>
<path d="M2020.77 675.5C1805.77 619 2046.9 -201.014 1328.4 252.986C609.904 706.986 1009.77 77.5003 821.77 -87.9999C633.77 -253.5 271.5 253.1 -9.99988 349C-291.5 444.9 -26.0961 727.986 -26.0961 727.986" stroke="#6EC4FE" stroke-opacity="0.24" stroke-width="3"/>
<path d="M1248.27 273.5C1908.27 -245 2071.04 648 2001.27 734C1931.5 820 1168.5 823 768.27 761C368.04 699 -17.5 753.5 -17.5 753.5C-17.5 753.5 -260 487.024 -12 402.5C236 317.976 411.77 -176 717.27 -60.0001C1022.77 56.0001 588.27 792 1248.27 273.5Z" stroke="#0375FA" stroke-opacity="0.15" stroke-width="3"/>
<path d="M547.77 623C566.272 623 581.27 608.002 581.27 589.5C581.27 570.998 566.272 556 547.77 556C529.268 556 514.27 570.998 514.27 589.5C514.27 608.002 529.268 623 547.77 623Z" fill="#6EC4FE" fill-opacity="0.15"/>
<path d="M508.77 617C518.987 617 527.27 608.717 527.27 598.5C527.27 588.283 518.987 580 508.77 580C498.553 580 490.27 588.283 490.27 598.5C490.27 608.717 498.553 617 508.77 617Z" fill="#6EC4FE" fill-opacity="0.15"/>
<path d="M1145 256C1183.11 256 1214 225.108 1214 187C1214 148.892 1183.11 118 1145 118C1106.89 118 1076 148.892 1076 187C1076 225.108 1106.89 256 1145 256Z" fill="#0A1A3B" fill-opacity="0.04"/>
<path d="M1951.27 694C1989.38 694 2020.27 663.108 2020.27 625C2020.27 586.892 1989.38 556 1951.27 556C1913.16 556 1882.27 586.892 1882.27 625C1882.27 663.108 1913.16 694 1951.27 694Z" fill="#6EC4FE" fill-opacity="0.2"/>
<path d="M663.27 240C678.182 240 690.27 227.912 690.27 213C690.27 198.088 678.182 186 663.27 186C648.358 186 636.27 198.088 636.27 213C636.27 227.912 648.358 240 663.27 240Z" fill="#0A1A3B" fill-opacity="0.05"/>
<path d="M-42.73 145.073V-116L532.022 -115.686C532.897 -115.744 533.648 -115.744 534.27 -115.684L532.022 -115.686C496.058 -113.286 250.335 -12.2449 127.576 105.777C1.82886 226.671 -42.73 145.073 -42.73 145.073Z" fill="#0A1A3B" fill-opacity="0.03"/>
</svg>
