<svg width="75" height="81" viewBox="0 0 75 81" fill="none" xmlns="http://www.w3.org/2000/svg">
<rect width="75" height="75" rx="12" fill="#E9F6FC"/>
<path d="M26.5127 56V51.3369L38.0361 38.959C39.208 37.6406 40.1276 36.4932 40.7949 35.5166C41.4622 34.54 41.9342 33.653 42.2109 32.8555C42.5039 32.0417 42.6504 31.236 42.6504 30.4385C42.6504 29.055 42.2516 27.8831 41.4541 26.9229C40.6729 25.9626 39.5173 25.4824 37.9873 25.4824C36.3434 25.4824 35.0983 26.0195 34.252 27.0938C33.4056 28.1517 32.9824 29.6165 32.9824 31.4883H26.0488L26 31.3418C25.9512 29.1934 26.4069 27.2646 27.3672 25.5557C28.3438 23.8304 29.7435 22.4632 31.5664 21.4541C33.4056 20.445 35.5703 19.9404 38.0605 19.9404C40.502 19.9404 42.5934 20.3799 44.335 21.2588C46.0928 22.1214 47.4437 23.334 48.3877 24.8965C49.3317 26.459 49.8037 28.2656 49.8037 30.3164C49.8037 31.7324 49.5514 33.0671 49.0469 34.3203C48.5423 35.5573 47.7529 36.8675 46.6787 38.251C45.6045 39.6344 44.221 41.2214 42.5283 43.0117L35.6191 50.4336L35.668 50.5557H44.8721L45.2383 47.1621H50.7559V56H26.5127Z" fill="#1890CF"/>
</svg>
