<svg width="213" height="91" viewBox="0 0 213 91" fill="none" xmlns="http://www.w3.org/2000/svg">
<g clip-path="url(#clip0_1_313)">
<mask id="mask0_1_313" style="mask-type:luminance" maskUnits="userSpaceOnUse" x="0" y="-2" width="213" height="93">
<path d="M212.27 -2H0.27002V91H212.27V-2Z" fill="white"/>
</mask>
<g mask="url(#mask0_1_313)">
<g filter="url(#filter0_d_1_313)">
<path d="M148.511 -122C153.45 -122 158.301 -120.694 162.571 -118.214C166.842 -115.734 170.381 -112.168 172.829 -107.879L215.349 -33.379C217.762 -29.1514 219.031 -24.3677 219.031 -19.5C219.031 -14.6323 217.762 -9.84865 215.349 -5.621L172.829 68.879C170.381 73.1682 166.842 76.7337 162.571 79.2137C158.301 81.6937 153.45 83 148.511 83H64.0291C59.0905 83 54.2397 81.6937 49.9688 79.2137C45.698 76.7337 42.1591 73.1682 39.7111 68.879L-2.80889 -5.621C-5.22172 -9.84865 -6.49072 -14.6323 -6.49072 -19.5C-6.49072 -24.3677 -5.22172 -29.1514 -2.80889 -33.379L39.7111 -107.879C42.1591 -112.168 45.698 -115.734 49.9688 -118.214C54.2397 -120.694 59.0905 -122 64.0291 -122H148.511Z" fill="white"/>
</g>
<path d="M75.8701 12.6616C75.8701 12.6616 89.2972 14.2488 95.5232 29.3848C101.749 44.5208 81.3472 48.5847 81.3472 48.5847L75.5132 41.4727C75.5132 41.4727 81.9582 37.4727 81.3472 25.4727C80.2362 16.0847 75.8701 12.6616 75.8701 12.6616Z" fill="url(#paint0_linear_1_313)"/>
<path d="M39.9253 30.3908C39.9253 30.3908 30.9252 18.9986 38.2742 8.02463C38.2862 8.00363 38.3822 7.8517 38.4822 7.6987C46.1152 -4.0603 55.9913 10.5128 57.7823 13.0808C58.0423 13.4538 58.5522 14.3118 59.3352 15.6518C63.4092 22.6188 74.3232 41.7388 80.5052 44.0678C87.7352 46.7908 92.9463 46.1249 96.7503 34.2859C97.7813 40.4999 95.6222 52.5188 85.2932 63.9748C74.9642 75.4308 70.2933 66.1438 69.0723 63.6438C67.8513 61.1438 62.2113 45.3147 55.1243 31.8237C47.8683 18.7067 43.6452 20.3438 42.9182 20.3498C41.9502 20.6158 39.7333 21.3068 39.9253 30.3908Z" fill="url(#paint1_linear_1_313)"/>
<path d="M104.825 36.3701H99.605V61.3091H104.825V36.3701Z" fill="#38AFFF"/>
<path d="M107.354 36.3711H118.246L112.612 56.5811H117.495L116.649 61.1812H106.04L111.674 40.8052H106.04L107.354 36.3711Z" fill="#38AFFF"/>
<path d="M120.194 36.3711H131.086L125.452 56.5811H130.335L129.49 61.1812H118.88L124.514 40.8052H118.88L120.194 36.3711Z" fill="#38AFFF"/>
<path opacity="0.3" d="M75.5695 76.235C81.822 76.235 86.8905 75.7443 86.8905 75.139C86.8905 74.5337 81.822 74.043 75.5695 74.043C69.3171 74.043 64.2485 74.5337 64.2485 75.139C64.2485 75.7443 69.3171 76.235 75.5695 76.235Z" fill="black"/>
<path d="M101.312 73.2778L99.7207 67.4597H100.437L101.653 72.1983H101.709L102.948 67.4597H103.743L104.982 72.1983H105.039L106.255 67.4597H106.971L105.38 73.2778H104.653L103.368 68.6415H103.323L102.039 73.2778H101.312ZM109.181 73.3687C108.761 73.3687 108.398 73.2759 108.093 73.0903C107.79 72.9028 107.556 72.6415 107.391 72.3062C107.228 71.9691 107.147 71.5771 107.147 71.1301C107.147 70.6831 107.228 70.2892 107.391 69.9483C107.556 69.6055 107.785 69.3384 108.079 69.1472C108.374 68.954 108.719 68.8574 109.113 68.8574C109.34 68.8574 109.564 68.8953 109.786 68.971C110.008 69.0468 110.209 69.1699 110.391 69.3403C110.573 69.5089 110.718 69.7324 110.826 70.0108C110.934 70.2892 110.988 70.632 110.988 71.0392V71.3233H107.624V70.7437H110.306C110.306 70.4975 110.257 70.2778 110.158 70.0847C110.062 69.8915 109.923 69.739 109.743 69.6273C109.565 69.5155 109.355 69.4597 109.113 69.4597C108.846 69.4597 108.615 69.5259 108.42 69.6585C108.226 69.7892 108.078 69.9597 107.974 70.1699C107.869 70.3801 107.817 70.6055 107.817 70.846V71.2324C107.817 71.5619 107.874 71.8413 107.988 72.0704C108.103 72.2977 108.263 72.471 108.468 72.5903C108.672 72.7078 108.91 72.7665 109.181 72.7665C109.357 72.7665 109.516 72.7418 109.658 72.6926C109.802 72.6415 109.926 72.5657 110.03 72.4653C110.135 72.3631 110.215 72.2362 110.272 72.0847L110.92 72.2665C110.851 72.4862 110.737 72.6793 110.576 72.846C110.415 73.0108 110.216 73.1396 109.979 73.2324C109.743 73.3233 109.476 73.3687 109.181 73.3687ZM112.099 73.2778V67.4597H112.769V69.6074H112.826C112.875 69.5316 112.943 69.435 113.03 69.3176C113.119 69.1983 113.246 69.0922 113.411 68.9994C113.578 68.9047 113.803 68.8574 114.087 68.8574C114.455 68.8574 114.779 68.9492 115.059 69.1329C115.339 69.3167 115.558 69.5771 115.715 69.9142C115.872 70.2513 115.951 70.649 115.951 71.1074C115.951 71.5695 115.872 71.9701 115.715 72.3091C115.558 72.6462 115.34 72.9076 115.062 73.0932C114.783 73.2769 114.462 73.3687 114.099 73.3687C113.818 73.3687 113.594 73.3223 113.425 73.2295C113.257 73.1348 113.127 73.0278 113.036 72.9085C112.945 72.7873 112.875 72.6869 112.826 72.6074H112.746V73.2778H112.099ZM112.758 71.096C112.758 71.4256 112.806 71.7163 112.903 71.9682C112.999 72.2182 113.14 72.4142 113.326 72.5562C113.511 72.6964 113.739 72.7665 114.008 72.7665C114.288 72.7665 114.522 72.6926 114.709 72.5449C114.899 72.3953 115.041 72.1945 115.136 71.9426C115.232 71.6888 115.28 71.4066 115.28 71.096C115.28 70.7892 115.233 70.5127 115.138 70.2665C115.046 70.0184 114.904 69.8223 114.715 69.6784C114.528 69.5326 114.292 69.4597 114.008 69.4597C113.735 69.4597 113.506 69.5288 113.32 69.667C113.135 69.8034 112.994 69.9947 112.9 70.2409C112.805 70.4852 112.758 70.7703 112.758 71.096ZM122.499 68.9142C122.465 68.6263 122.327 68.4028 122.084 68.2437C121.842 68.0847 121.545 68.0051 121.192 68.0051C120.935 68.0051 120.709 68.0468 120.516 68.1301C120.325 68.2134 120.175 68.328 120.067 68.4739C119.961 68.6197 119.908 68.7854 119.908 68.971C119.908 69.1263 119.945 69.2598 120.019 69.3716C120.095 69.4814 120.191 69.5733 120.309 69.6472C120.426 69.7191 120.549 69.7788 120.678 69.8261C120.807 69.8716 120.925 69.9085 121.033 69.9369L121.624 70.096C121.776 70.1358 121.944 70.1907 122.13 70.2608C122.317 70.3309 122.496 70.4265 122.667 70.5477C122.839 70.667 122.981 70.8204 123.093 71.0079C123.205 71.1954 123.261 71.4256 123.261 71.6983C123.261 72.0127 123.178 72.2968 123.013 72.5506C122.85 72.8043 122.612 73.0061 122.297 73.1557C121.985 73.3053 121.605 73.3801 121.158 73.3801C120.742 73.3801 120.381 73.3129 120.076 73.1784C119.773 73.0439 119.534 72.8564 119.36 72.6159C119.188 72.3754 119.09 72.096 119.067 71.7778H119.795C119.814 71.9975 119.887 72.1793 120.016 72.3233C120.147 72.4653 120.312 72.5714 120.511 72.6415C120.711 72.7097 120.927 72.7437 121.158 72.7437C121.427 72.7437 121.669 72.7002 121.883 72.6131C122.097 72.524 122.266 72.4009 122.391 72.2437C122.516 72.0847 122.579 71.899 122.579 71.6869C122.579 71.4937 122.525 71.3365 122.417 71.2153C122.309 71.0941 122.167 70.9956 121.991 70.9199C121.814 70.8441 121.624 70.7778 121.42 70.721L120.704 70.5165C120.249 70.3858 119.889 70.1992 119.624 69.9568C119.359 69.7144 119.226 69.3972 119.226 69.0051C119.226 68.6793 119.314 68.3953 119.491 68.1528C119.669 67.9085 119.907 67.7191 120.207 67.5847C120.508 67.4483 120.844 67.3801 121.215 67.3801C121.59 67.3801 121.923 67.4473 122.215 67.5818C122.507 67.7144 122.738 67.8962 122.908 68.1273C123.081 68.3583 123.172 68.6206 123.181 68.9142H122.499ZM126.101 73.3687C125.707 73.3687 125.361 73.275 125.064 73.0875C124.768 72.9 124.537 72.6377 124.371 72.3006C124.206 71.9634 124.123 71.5695 124.123 71.1187C124.123 70.6642 124.206 70.2674 124.371 69.9284C124.537 69.5894 124.768 69.3261 125.064 69.1386C125.361 68.9511 125.707 68.8574 126.101 68.8574C126.495 68.8574 126.839 68.9511 127.135 69.1386C127.432 69.3261 127.663 69.5894 127.828 69.9284C127.995 70.2674 128.078 70.6642 128.078 71.1187C128.078 71.5695 127.995 71.9634 127.828 72.3006C127.663 72.6377 127.432 72.9 127.135 73.0875C126.839 73.275 126.495 73.3687 126.101 73.3687ZM126.101 72.7665C126.4 72.7665 126.646 72.6898 126.839 72.5364C127.033 72.3829 127.176 72.1812 127.268 71.9312C127.361 71.6812 127.408 71.4104 127.408 71.1187C127.408 70.8271 127.361 70.5553 127.268 70.3034C127.176 70.0515 127.033 69.8479 126.839 69.6926C126.646 69.5373 126.4 69.4597 126.101 69.4597C125.801 69.4597 125.555 69.5373 125.362 69.6926C125.169 69.8479 125.026 70.0515 124.933 70.3034C124.84 70.5553 124.794 70.8271 124.794 71.1187C124.794 71.4104 124.84 71.6812 124.933 71.9312C125.026 72.1812 125.169 72.3829 125.362 72.5364C125.555 72.6898 125.801 72.7665 126.101 72.7665ZM129.772 67.4597V73.2778H129.101V67.4597H129.772ZM133.75 71.4937V68.9142H134.42V73.2778H133.75V72.5392H133.704C133.602 72.7608 133.443 72.9492 133.227 73.1045C133.011 73.2579 132.739 73.3347 132.409 73.3347C132.136 73.3347 131.894 73.275 131.682 73.1557C131.47 73.0345 131.303 72.8526 131.182 72.6102C131.06 72.3659 131 72.0581 131 71.6869V68.9142H131.67V71.6415C131.67 71.9597 131.759 72.2134 131.937 72.4028C132.117 72.5922 132.346 72.6869 132.625 72.6869C132.792 72.6869 132.961 72.6443 133.133 72.5591C133.308 72.4739 133.453 72.3432 133.571 72.167C133.69 71.9909 133.75 71.7665 133.75 71.4937ZM137.546 68.9142V69.4824H135.285V68.9142H137.546ZM135.944 67.8687H136.614V72.0278C136.614 72.2172 136.642 72.3593 136.697 72.454C136.753 72.5468 136.825 72.6093 136.913 72.6415C137.002 72.6718 137.095 72.6869 137.194 72.6869C137.268 72.6869 137.328 72.6831 137.376 72.6756C137.423 72.6661 137.461 72.6585 137.489 72.6528L137.626 73.2551C137.58 73.2722 137.517 73.2892 137.435 73.3062C137.354 73.3252 137.251 73.3347 137.126 73.3347C136.936 73.3347 136.751 73.2939 136.569 73.2125C136.389 73.1311 136.239 73.007 136.12 72.8403C136.002 72.6737 135.944 72.4634 135.944 72.2097V67.8687ZM138.555 73.2778V68.9142H139.225V73.2778H138.555ZM138.895 68.1869C138.765 68.1869 138.652 68.1424 138.557 68.0534C138.465 67.9644 138.418 67.8574 138.418 67.7324C138.418 67.6074 138.465 67.5004 138.557 67.4114C138.652 67.3223 138.765 67.2778 138.895 67.2778C139.026 67.2778 139.138 67.3223 139.231 67.4114C139.325 67.5004 139.373 67.6074 139.373 67.7324C139.373 67.8574 139.325 67.9644 139.231 68.0534C139.138 68.1424 139.026 68.1869 138.895 68.1869ZM142.226 73.3687C141.832 73.3687 141.486 73.275 141.189 73.0875C140.893 72.9 140.662 72.6377 140.496 72.3006C140.331 71.9634 140.248 71.5695 140.248 71.1187C140.248 70.6642 140.331 70.2674 140.496 69.9284C140.662 69.5894 140.893 69.3261 141.189 69.1386C141.486 68.9511 141.832 68.8574 142.226 68.8574C142.62 68.8574 142.964 68.9511 143.26 69.1386C143.557 69.3261 143.788 69.5894 143.953 69.9284C144.12 70.2674 144.203 70.6642 144.203 71.1187C144.203 71.5695 144.12 71.9634 143.953 72.3006C143.788 72.6377 143.557 72.9 143.26 73.0875C142.964 73.275 142.62 73.3687 142.226 73.3687ZM142.226 72.7665C142.525 72.7665 142.771 72.6898 142.964 72.5364C143.158 72.3829 143.301 72.1812 143.393 71.9312C143.486 71.6812 143.533 71.4104 143.533 71.1187C143.533 70.8271 143.486 70.5553 143.393 70.3034C143.301 70.0515 143.158 69.8479 142.964 69.6926C142.771 69.5373 142.525 69.4597 142.226 69.4597C141.926 69.4597 141.68 69.5373 141.487 69.6926C141.294 69.8479 141.151 70.0515 141.058 70.3034C140.965 70.5553 140.919 70.8271 140.919 71.1187C140.919 71.4104 140.965 71.6812 141.058 71.9312C141.151 72.1812 141.294 72.3829 141.487 72.5364C141.68 72.6898 141.926 72.7665 142.226 72.7665ZM145.897 70.6528V73.2778H145.226V68.9142H145.874V69.596H145.931C146.033 69.3744 146.189 69.1964 146.397 69.0619C146.605 68.9256 146.874 68.8574 147.204 68.8574C147.499 68.8574 147.758 68.918 147.979 69.0392C148.201 69.1585 148.373 69.3403 148.496 69.5847C148.619 69.8271 148.681 70.1339 148.681 70.5051V73.2778H148.011V70.5506C148.011 70.2078 147.922 69.9407 147.743 69.7494C147.565 69.5562 147.321 69.4597 147.011 69.4597C146.797 69.4597 146.605 69.5061 146.437 69.5989C146.27 69.6917 146.138 69.8271 146.042 70.0051C145.945 70.1831 145.897 70.399 145.897 70.6528ZM152.997 69.8915L152.395 70.0619C152.357 69.9615 152.301 69.864 152.227 69.7693C152.155 69.6727 152.057 69.5932 151.932 69.5307C151.807 69.4682 151.647 69.4369 151.452 69.4369C151.185 69.4369 150.962 69.4985 150.784 69.6216C150.608 69.7428 150.52 69.8972 150.52 70.0847C150.52 70.2513 150.58 70.3829 150.702 70.4795C150.823 70.5761 151.012 70.6566 151.27 70.721L151.917 70.8801C152.308 70.9748 152.598 71.1197 152.79 71.3148C152.981 71.5079 153.077 71.757 153.077 72.0619C153.077 72.3119 153.005 72.5354 152.861 72.7324C152.719 72.9293 152.52 73.0847 152.264 73.1983C152.008 73.3119 151.711 73.3687 151.372 73.3687C150.927 73.3687 150.559 73.2722 150.267 73.079C149.975 72.8858 149.791 72.6036 149.713 72.2324L150.349 72.0733C150.41 72.3081 150.524 72.4843 150.693 72.6017C150.864 72.7191 151.086 72.7778 151.361 72.7778C151.673 72.7778 151.921 72.7115 152.105 72.579C152.291 72.4445 152.383 72.2835 152.383 72.096C152.383 71.9445 152.33 71.8176 152.224 71.7153C152.118 71.6112 151.955 71.5335 151.736 71.4824L151.008 71.3119C150.609 71.2172 150.315 71.0704 150.128 70.8716C149.942 70.6708 149.849 70.4199 149.849 70.1187C149.849 69.8725 149.918 69.6547 150.057 69.4653C150.197 69.2759 150.387 69.1273 150.628 69.0193C150.87 68.9114 151.145 68.8574 151.452 68.8574C151.883 68.8574 152.222 68.9521 152.469 69.1415C152.717 69.3309 152.893 69.5809 152.997 69.8915Z" fill="#3E443A"/>
</g>
</g>
<defs>
<filter id="filter0_d_1_313" x="-6.49072" y="-128" width="240.522" height="217" filterUnits="userSpaceOnUse" color-interpolation-filters="sRGB">
<feFlood flood-opacity="0" result="BackgroundImageFix"/>
<feColorMatrix in="SourceAlpha" type="matrix" values="0 0 0 0 0 0 0 0 0 0 0 0 0 0 0 0 0 0 127 0" result="hardAlpha"/>
<feOffset dx="9"/>
<feGaussianBlur stdDeviation="3"/>
<feColorMatrix type="matrix" values="0 0 0 0 0 0 0 0 0 0 0 0 0 0 0 0 0 0 0.141 0"/>
<feBlend mode="normal" in2="BackgroundImageFix" result="effect1_dropShadow_1_313"/>
<feBlend mode="normal" in="SourceGraphic" in2="effect1_dropShadow_1_313" result="shape"/>
</filter>
<linearGradient id="paint0_linear_1_313" x1="86.1091" y1="12.6616" x2="86.1091" y2="48.5847" gradientUnits="userSpaceOnUse">
<stop stop-color="#39AFFE"/>
<stop offset="1" stop-color="#0D519C"/>
</linearGradient>
<linearGradient id="paint1_linear_1_313" x1="40.1916" y1="11.9369" x2="93.3263" y2="55.4494" gradientUnits="userSpaceOnUse">
<stop stop-color="#139FFE"/>
<stop offset="0.587" stop-color="#4BB6FE"/>
<stop offset="0.747" stop-color="#6AC2FE"/>
<stop offset="1" stop-color="#74C7FF"/>
</linearGradient>
<clipPath id="clip0_1_313">
<rect width="212" height="93" fill="white" transform="translate(0.27002 -2)"/>
</clipPath>
</defs>
</svg>
