<svg width="1059" height="1059" viewBox="0 0 1059 1059" fill="none" xmlns="http://www.w3.org/2000/svg">
<path d="M195.326 533.833C194.272 442.782 230.145 351.624 302.016 284.988C373.887 218.352 467.466 189.553 558.138 197.554L560.609 195.305C554.289 194.711 547.94 194.286 541.56 194.027C451.926 190.6 366.31 222.299 300.509 283.29C234.708 344.282 196.504 427.299 193.078 516.991C192.831 523.377 192.789 529.738 192.896 536.083L195.326 533.833Z" fill="#1890CF" fill-opacity="0.3"/>
<path d="M817.189 361.629L818.989 359.97C788.86 308.925 745.964 266.599 694.518 237.153L692.628 238.903C744.246 268.108 787.22 310.445 817.189 361.62V361.629Z" fill="#1890CF" fill-opacity="0.3"/>
<path d="M860.146 488.199C872.955 591.286 837.759 698.984 755.918 774.84C620.879 899.996 409.249 891.898 284.159 756.787C260.738 731.529 241.381 702.784 226.782 671.579L224.903 673.311C239.638 704.434 259.052 733.114 282.469 758.354C343.465 824.264 426.493 862.448 516.214 865.879C605.935 869.309 691.617 837.583 757.484 776.531C823.351 715.478 861.514 632.431 864.943 542.662C865.671 523.772 864.825 504.853 862.412 486.104L860.146 488.199Z" fill="#1890CF" fill-opacity="0.3"/>
<path d="M285.972 396.519C296.379 377.613 308.982 359.989 323.521 344.011C423.8 233.786 594.001 223.251 707.175 318.668L708.659 317.027C653.458 270.495 582.255 247.144 510.086 251.906C437.917 256.669 370.432 289.172 321.881 342.551C306.943 358.956 294.015 377.07 283.368 396.511L285.972 396.519Z" fill="#1890CF" fill-opacity="0.3"/>
<path d="M253.143 513.451H250.801C250.252 523.383 250.22 533.337 250.703 543.273C253.994 614.173 284.052 681.111 334.702 730.339L336.176 728.686C276.814 670.678 248.787 591.445 253.143 513.451Z" fill="#1890CF" fill-opacity="0.3"/>
<path d="M773.725 396.519C770.974 391.406 768.056 386.376 764.97 381.432L763.352 383.204C766.049 387.561 768.617 391.999 771.055 396.519H773.725Z" fill="#1890CF" fill-opacity="0.3"/>
<path d="M807.212 513.451H804.857C807.039 550.128 801.89 586.873 789.713 621.531C777.537 656.189 758.576 688.062 733.945 715.282C649.232 809.003 514.595 831.048 406.661 777.669L405.015 779.468C448.547 801.127 496.975 811.004 545.494 808.117C594.012 805.23 640.934 789.68 681.601 763.01C722.269 736.341 755.268 699.479 777.324 656.084C799.381 612.688 809.727 564.268 807.336 515.629C807.303 514.886 807.253 514.168 807.212 513.451Z" fill="#1890CF" fill-opacity="0.3"/>
<path d="M641.649 806.722C645.78 804.987 649.918 803.151 653.965 801.24L652.978 799.178C648.973 801.072 644.86 802.899 640.763 804.618L641.649 806.722Z" fill="#1890CF" fill-opacity="0.3"/>
<path d="M286.948 707.707L285.254 708.975C287.767 712.375 290.391 715.759 293.054 719.023L294.684 717.684C292.045 714.435 289.445 711.083 286.948 707.707Z" fill="#1890CF" fill-opacity="0.3"/>
<path d="M272.13 686.019L270.167 687.179C272.578 690.906 275.101 694.649 277.685 698.277L279.596 697.043C277.013 693.431 274.524 689.729 272.13 686.019Z" fill="#1890CF" fill-opacity="0.3"/>
<path d="M240.07 614.351L238.105 614.966C239.259 619.178 240.506 623.415 241.828 627.553L243.763 626.848C242.455 622.734 241.232 618.498 240.07 614.351Z" fill="#1890CF" fill-opacity="0.3"/>
<path d="M321.652 747.313L320.145 748.939C323.349 751.906 326.668 754.849 330.028 757.686L331.461 756.06C328.125 753.182 324.831 750.28 321.652 747.313Z" fill="#1890CF" fill-opacity="0.3"/>
<path d="M259.039 663.387L256.965 664.339C259.022 668.132 261.199 671.932 263.437 675.646L265.452 674.606C263.231 670.925 261.07 667.156 259.039 663.387Z" fill="#1890CF" fill-opacity="0.3"/>
<path d="M248.487 638.869L246.592 639.701C248.076 643.863 249.637 648.025 251.32 652.071L253.193 651.188C251.548 647.118 249.964 642.989 248.487 638.869Z" fill="#1890CF" fill-opacity="0.3"/>
<path d="M616.911 816.152C621.103 814.773 625.32 813.275 629.447 811.708L628.691 809.551C624.581 811.109 620.413 812.599 616.245 813.968L616.911 816.152Z" fill="#1890CF" fill-opacity="0.3"/>
<path d="M564.381 825.004L564.685 827.468C569.293 826.819 573.953 826.06 578.526 825.198L578.126 822.753C573.579 823.605 568.954 824.364 564.381 825.004Z" fill="#1890CF" fill-opacity="0.3"/>
<path d="M590.784 820.444L591.248 822.753C595.497 821.73 599.786 820.593 603.986 819.368L603.425 817.095C599.29 818.302 595.033 819.43 590.784 820.444Z" fill="#1890CF" fill-opacity="0.3"/>
<path d="M341.356 764.287L339.948 765.976C343.52 768.618 347.202 771.219 350.883 773.717L352.207 771.972C348.567 769.498 344.919 766.913 341.356 764.287Z" fill="#1890CF" fill-opacity="0.3"/>
<path d="M362.917 779.375L361.637 781.143C365.567 783.457 369.611 785.714 373.646 787.862L374.839 786.038C370.812 783.907 366.83 781.664 362.917 779.375Z" fill="#1890CF" fill-opacity="0.3"/>
<path d="M417.838 807.669C415.073 806.447 412.317 805.198 409.609 803.893L408.787 806.186C411.889 807.687 415.057 809.114 418.217 810.494L417.838 807.669Z" fill="#1890CF" fill-opacity="0.3"/>
<path d="M386.206 792.577L385.212 794.663C388.935 796.882 392.753 799.065 396.563 801.064L397.471 798.933C393.692 796.891 389.905 794.778 386.206 792.577Z" fill="#1890CF" fill-opacity="0.3"/>
<path d="M303.834 728.453L302.228 729.816C305.086 732.878 308.049 735.94 311.06 738.826L312.601 737.395C309.615 734.486 306.676 731.477 303.834 728.453Z" fill="#1890CF" fill-opacity="0.3"/>
<path d="M295.627 340.465L293.839 338.997C290.903 342.551 288.018 346.217 285.254 349.882L287.103 351.256C289.815 347.624 292.691 343.993 295.627 340.465Z" fill="#1890CF" fill-opacity="0.3"/>
<path d="M330.971 301.277C327.627 304.105 324.308 307.046 321.088 310.02L322.595 311.65C325.791 308.692 329.085 305.775 332.404 302.972L330.971 301.277Z" fill="#1890CF" fill-opacity="0.3"/>
<path d="M311.855 320.137C308.582 323.058 305.344 326.086 302.228 329.138L303.979 330.51C307.077 327.482 310.297 324.469 313.544 321.571L311.855 320.137Z" fill="#1890CF" fill-opacity="0.3"/>
<path d="M349.986 286.189C346.917 288.374 343.866 290.61 340.891 292.896L342.305 294.676C344.929 292.66 347.62 290.677 350.321 288.771L349.986 286.189Z" fill="#1890CF" fill-opacity="0.3"/>
<path d="M473.853 236.588L473.462 234.324C469.517 235.045 465.531 235.868 461.594 236.759L461.886 239.039C465.88 238.148 469.892 237.316 473.853 236.588Z" fill="#1890CF" fill-opacity="0.3"/>
<path d="M538.92 827.303L539.199 829.354C543.493 829.176 547.836 828.906 552.122 828.583L551.924 826.525C547.622 826.856 543.238 827.126 538.92 827.303Z" fill="#1890CF" fill-opacity="0.3"/>
<path d="M277.893 360.686C275.58 364.317 273.268 368.08 271.109 371.778L272.859 372.945C275.018 369.239 277.284 365.55 279.596 361.926L277.893 360.686Z" fill="#1890CF" fill-opacity="0.3"/>
<path d="M263.672 383.318C261.687 387.017 259.748 390.813 257.907 394.616L259.733 395.576C261.55 391.805 263.474 388.034 265.451 384.358L263.672 383.318Z" fill="#1890CF" fill-opacity="0.3"/>
<path d="M234.777 456.871C233.585 461.386 232.485 465.988 231.504 470.556L233.915 471.016C234.887 466.483 235.979 461.916 237.162 457.444L234.777 456.871Z" fill="#1890CF" fill-opacity="0.3"/>
<path d="M252.027 406.892C250.126 410.957 248.303 415.122 246.592 419.261L248.743 420.094C250.472 415.98 252.252 411.848 254.136 407.817L252.027 406.892Z" fill="#1890CF" fill-opacity="0.3"/>
<path d="M241.882 431.41C240.552 435.552 239.291 439.783 238.105 443.982L240.046 444.612C241.194 440.438 242.441 436.239 243.763 432.13L241.882 431.41Z" fill="#1890CF" fill-opacity="0.3"/>
<path d="M813.568 615.294C814.84 611.11 816.046 606.846 817.103 602.621L814.955 602.092C813.89 606.284 812.7 610.516 811.445 614.667L813.568 615.294Z" fill="#1890CF" fill-opacity="0.3"/>
<path d="M798.133 408.778L800.129 407.933C798.369 404.108 796.487 400.275 794.54 396.519L792.585 397.458C794.516 401.182 796.381 404.992 798.133 408.778Z" fill="#1890CF" fill-opacity="0.3"/>
<path d="M756.903 341.826L758.637 340.454C755.819 337.085 752.892 333.741 749.932 330.51L748.264 331.955C751.199 335.169 754.109 338.489 756.903 341.826Z" fill="#1890CF" fill-opacity="0.3"/>
<path d="M665.452 795.406C669.518 793.326 673.603 791.12 677.54 788.865L676.374 786.919C672.428 789.166 668.379 791.355 664.338 793.418L665.452 795.406Z" fill="#1890CF" fill-opacity="0.3"/>
<path d="M772.85 362.572L774.668 361.411C772.2 357.99 769.632 354.576 767.016 351.256L765.238 352.494C767.83 355.784 770.381 359.182 772.85 362.572Z" fill="#1890CF" fill-opacity="0.3"/>
<path d="M526.661 232.137V229.61C522.285 229.61 517.843 229.704 513.459 229.921L513.549 232.439C517.909 232.231 522.318 232.127 526.661 232.137Z" fill="#1890CF" fill-opacity="0.3"/>
<path d="M486.378 234.324L487.027 234.232C491.421 233.654 495.872 233.176 500.257 232.791L500.066 230.553C495.647 230.938 491.163 231.391 486.753 232.011L486.112 232.095L486.378 234.324Z" fill="#1890CF" fill-opacity="0.3"/>
<path d="M552.861 233.382L553.065 230.71C548.721 230.23 544.312 229.86 539.961 229.61L539.863 232.291C544.182 232.531 548.558 232.901 552.861 233.382Z" fill="#1890CF" fill-opacity="0.3"/>
<path d="M629.569 250.355L630.39 248.542C626.283 247.183 622.043 245.89 617.87 244.697L617.188 246.54C621.288 247.718 625.469 249.004 629.569 250.355Z" fill="#1890CF" fill-opacity="0.3"/>
<path d="M605.254 242.811L605.872 240.567C601.389 239.337 596.802 238.193 592.241 237.153L591.727 239.415C596.254 240.446 600.797 241.59 605.254 242.811Z" fill="#1890CF" fill-opacity="0.3"/>
<path d="M579.071 237.153L579.469 234.75C575.195 233.837 570.848 233.096 566.559 232.439L566.267 234.869C570.532 235.518 574.838 236.295 579.071 237.153Z" fill="#1890CF" fill-opacity="0.3"/>
<path d="M785.965 385.204L787.87 384.154C785.752 380.382 783.528 376.611 781.247 372.945L779.383 374.083C781.64 377.717 783.855 381.464 785.965 385.204Z" fill="#1890CF" fill-opacity="0.3"/>
<path d="M748.973 730.339C751.935 727.088 754.873 723.763 757.694 720.405L755.968 719.023C753.18 722.356 750.267 725.673 747.321 728.876L748.973 730.339Z" fill="#1890CF" fill-opacity="0.3"/>
<path d="M766.044 710.536C768.667 706.954 771.249 703.262 773.725 699.553L771.919 698.277C769.468 701.961 766.902 705.628 764.295 709.185L766.044 710.536Z" fill="#1890CF" fill-opacity="0.3"/>
<path d="M780.483 687.905C783.029 684.233 785.513 680.464 787.87 676.703L785.774 675.646C783.425 679.382 780.96 683.119 778.44 686.759L780.483 687.905Z" fill="#1890CF" fill-opacity="0.3"/>
<path d="M688.181 782.204C691.892 779.76 695.61 777.207 699.229 774.62L697.942 772.774C694.348 775.37 690.655 777.906 686.97 780.358L688.181 782.204Z" fill="#1890CF" fill-opacity="0.3"/>
<path d="M793.544 665.273C795.495 661.24 797.381 657.115 799.186 652.999L797.211 652.071C795.454 656.154 793.576 660.253 791.642 664.252L793.544 665.273Z" fill="#1890CF" fill-opacity="0.3"/>
<path d="M709.981 767.116C713.347 764.32 716.713 761.405 719.975 758.448L718.58 756.743C715.375 759.684 712.009 762.573 708.659 765.352L709.981 767.116Z" fill="#1890CF" fill-opacity="0.3"/>
<path d="M730.011 749.199C733.323 746.313 736.61 743.325 739.777 740.313L738.16 738.826C735.017 741.815 731.756 744.787 728.461 747.642L730.011 749.199Z" fill="#1890CF" fill-opacity="0.3"/>
<path d="M820.451 484.218L822.761 483.893C822.055 479.585 821.236 475.252 820.338 471.016L818.046 471.438C818.935 475.665 819.754 479.966 820.451 484.218Z" fill="#1890CF" fill-opacity="0.3"/>
<path d="M804.977 640.755C806.599 636.629 808.124 632.454 809.559 628.279L807.507 627.553C806.088 631.679 804.556 635.862 802.958 639.93L804.977 640.755Z" fill="#1890CF" fill-opacity="0.3"/>
<path d="M807.471 433.296L809.559 432.587C808.145 428.346 806.608 424.22 805.013 420.094L802.958 420.919C804.536 424.954 806.065 429.121 807.471 433.296Z" fill="#1890CF" fill-opacity="0.3"/>
<path d="M814.92 458.757L817.103 458.235C816.045 454.006 814.861 449.744 813.611 445.555L811.445 446.166C812.696 450.322 813.862 454.56 814.92 458.757Z" fill="#1890CF" fill-opacity="0.3"/>
<path d="M825.59 510.435C825.274 506.115 824.837 501.723 824.289 497.42L821.818 497.664C822.357 501.975 822.747 506.335 823.109 510.622L825.59 510.435Z" fill="#1890CF" fill-opacity="0.3"/>
<path d="M819.843 589.833C820.577 585.584 821.214 581.254 821.818 576.972L820 576.631C819.431 580.889 818.773 585.178 818.046 589.395L819.843 589.833Z" fill="#1890CF" fill-opacity="0.3"/>
<path d="M824.253 563.429C824.812 559.097 825.251 554.691 825.59 550.374L823.136 550.227C822.807 554.552 822.367 558.917 821.818 563.225L824.253 563.429Z" fill="#1890CF" fill-opacity="0.3"/>
<path d="M825.526 537.026C825.608 532.647 825.614 528.202 825.526 523.824H823.704C823.779 528.17 823.772 532.581 823.704 536.944L825.526 537.026Z" fill="#1890CF" fill-opacity="0.3"/>
<path d="M710.663 711.606C811.112 611.157 811.112 448.296 710.663 347.846C610.213 247.397 447.353 247.397 346.903 347.846C246.454 448.296 246.454 611.157 346.903 711.606C447.353 812.055 610.213 812.055 710.663 711.606Z" fill="#1890CF"/>
<path d="M793.132 265.556C938.818 411.242 938.818 647.446 793.132 793.132C647.446 938.818 411.242 938.818 265.556 793.132C119.87 647.446 119.87 411.242 265.556 265.556C411.242 119.87 647.446 119.87 793.132 265.556Z" stroke="#1890CF" stroke-opacity="0.15" stroke-width="2.5"/>
<path d="M238.283 644.713C260.97 622.026 260.97 585.242 238.283 562.555C215.595 539.867 178.812 539.867 156.124 562.555C133.437 585.242 133.437 622.026 156.124 644.713C178.812 667.401 215.595 667.401 238.283 644.713Z" fill="#E9F6FC"/>
<path d="M613.329 877.367C622.426 868.269 622.426 853.519 613.329 844.421C604.231 835.323 589.481 835.323 580.383 844.421C571.285 853.519 571.285 868.269 580.383 877.367C589.481 886.464 604.231 886.464 613.329 877.367Z" fill="#E9F6FC"/>
<path d="M850.905 462.922C868.498 445.329 868.498 416.804 850.905 399.211C833.312 381.617 804.787 381.617 787.194 399.211C769.6 416.804 769.6 445.329 787.194 462.922C804.787 480.515 833.312 480.515 850.905 462.922Z" fill="#E9F6FC"/>
<path d="M650.357 226.952C661.236 216.072 661.236 198.432 650.357 187.552C639.477 176.673 621.837 176.673 610.957 187.552C600.077 198.432 600.077 216.072 610.957 226.952C621.837 237.832 639.477 237.832 650.357 226.952Z" fill="#1890CF" fill-opacity="0.3"/>
<path d="M242.151 685.593C242.151 685.593 238.584 692.242 263.923 697.778H794.416C794.416 697.778 812.164 696.637 816.837 688.269V683.689L242.151 685.593Z" fill="#B0B0B0"/>
<path d="M242.279 672.189H817.051V686.913C817.051 686.913 817.914 688.889 811.144 688.397H247.708C247.708 688.397 242.415 689.881 241.923 686.428L242.279 672.189Z" fill="#1D6C96"/>
<path d="M790.357 680.814C790.377 681.063 790.299 681.31 790.139 681.502C789.979 681.694 789.75 681.816 789.501 681.841H769.947C769.699 681.816 769.47 681.694 769.31 681.502C769.15 681.31 769.071 681.063 769.091 680.814C769.067 680.561 769.144 680.31 769.304 680.114C769.464 679.917 769.695 679.792 769.947 679.765H789.501C789.753 679.792 789.984 679.917 790.144 680.114C790.305 680.31 790.381 680.561 790.357 680.814Z" fill="#B0B0B0"/>
<path d="M490.622 672.303C490.622 672.303 488.411 679.694 495.787 680.429H562.474C562.474 680.429 569.565 681.349 568.616 672.581L490.622 672.303Z" fill="#B0B0B0"/>
<path d="M568.274 672.711V672.539C568.27 672.596 568.27 672.653 568.274 672.711Z" fill="url(#paint0_linear_1_19)"/>
<path d="M760.537 672.126V410.122C760.522 404.394 758.24 398.905 754.189 394.854C750.139 390.804 744.65 388.522 738.922 388.506H320.074C314.346 388.522 308.856 390.804 304.806 394.854C300.755 398.905 298.473 404.394 298.458 410.122V672.126H760.537Z" fill="#123544"/>
<path d="M745.67 404.743H313.318V656.039H745.67V404.743Z" fill="url(#paint1_linear_1_19)" stroke="#1890CF" stroke-width="2"/>
<path d="M642.123 338.07C642.03 338.106 632.72 341.637 617.725 341.637C608.14 341.591 598.603 340.294 589.354 337.778C554.626 328.504 543.79 308.123 543.098 306.746L530.857 280.508L516.368 305.476C515.726 306.453 502.863 325.515 467.544 337.649C459.047 340.554 450.128 342.03 441.149 342.015C426.917 342.015 416.894 338.313 416.837 338.299L395.699 329.981L396.477 373.568C397.397 425.024 397.725 430.582 397.839 432.251C402.17 564.89 518.294 613.3 519.471 613.771L529.651 617.873L539.745 613.593C544.739 611.502 661.327 560.888 661.912 430.46C662.069 427.464 662.319 418.005 662.74 373.105L662.896 352.338L663.189 329.431L642.123 338.07Z" fill="url(#paint2_linear_1_19)" stroke="url(#paint3_linear_1_19)" stroke-width="2"/>
<path d="M585.43 352.416C542.428 340.924 529.394 313.245 529.394 313.245C529.394 313.245 515.483 337.207 472.466 351.981C439.201 363.395 411.258 352.402 411.258 352.402L411.629 373.283C412.506 422.642 412.842 429.64 412.97 431.466C416.844 554.675 524.037 599.247 525.121 599.682L529.494 601.444L533.831 599.61C538.44 597.677 646.403 550.772 646.724 430.018C646.867 427.728 647.116 419.189 647.552 372.948L647.737 352.138C647.737 352.138 622.797 362.411 585.43 352.416Z" fill="url(#paint4_linear_1_19)" stroke="#1890CF" stroke-width="1.5"/>
<path opacity="0.3" d="M585.43 352.416C542.428 340.924 529.394 313.245 529.394 313.245L529.494 601.451L533.832 599.618C538.44 597.684 646.403 550.779 646.724 430.025C646.867 427.735 647.117 419.196 647.552 372.955L647.737 352.145C647.737 352.145 622.797 362.411 585.43 352.416Z" fill="white"/>
<path fill-rule="evenodd" clip-rule="evenodd" d="M530.508 526.753C528.995 528.053 526.757 528.04 525.259 526.723L471.648 479.576C470.353 478.436 469.611 476.795 469.611 475.07V429.244V389.409C469.611 386.747 471.364 384.408 473.938 383.727C483.661 381.155 507.945 375.312 527.871 375.312C547.696 375.312 572.651 380.068 582.836 382.199C585.568 382.77 587.485 385.186 587.485 387.978V429.244V475.029C587.485 476.778 586.722 478.439 585.396 479.579L530.508 526.753ZM549.713 412.901C551.3 414.48 551.3 417.042 549.713 418.621L522.615 445.587C521.028 447.167 518.455 447.167 516.867 445.587L506.028 434.801C504.441 433.221 504.441 430.66 506.028 429.081C507.615 427.501 510.189 427.501 511.776 429.081L519.741 437.007L543.965 412.901C545.552 411.321 548.125 411.321 549.713 412.901Z" fill="url(#paint5_linear_1_19)" stroke="url(#paint6_linear_1_19)"/>
<path d="M528.598 518.082C517.315 518.082 508.147 509.528 508.147 499.005V483.706C508.147 473.188 517.327 467.736 528.598 467.736C539.869 467.736 549.048 473.188 549.048 483.706V499.009C549.063 509.531 539.88 518.082 528.598 518.082ZM528.598 473.944C520.495 473.944 513.87 477.201 513.87 484.636V498.403C513.87 505.839 520.476 511.889 528.598 511.889C536.72 511.889 543.31 505.827 543.31 498.403V484.64C543.31 477.205 536.72 473.948 528.598 473.948V473.944Z" fill="url(#paint7_linear_1_19)" stroke="url(#paint8_linear_1_19)"/>
<path d="M555.338 496.614H501.04C500.832 496.614 500.627 496.614 500.419 496.645V535.832H555.338V496.614Z" fill="url(#paint9_linear_1_19)" stroke="url(#paint10_linear_1_19)"/>
<path d="M555.338 535.828H500.419V538.378H555.338V535.828Z" fill="url(#paint11_linear_1_19)" stroke="url(#paint12_linear_1_19)"/>
<path d="M529.968 506.013H525.789V509.964H529.968V506.013Z" fill="white"/>
<path d="M521.614 506.013H517.431V509.964H521.614V506.013Z" fill="white"/>
<path d="M538.325 506.013H534.146V509.964H538.325V506.013Z" fill="white"/>
<path d="M529.968 513.896H525.789V517.847H529.968V513.896Z" fill="white"/>
<path d="M521.614 513.896H517.431V517.847H521.614V513.896Z" fill="white"/>
<path d="M538.325 513.896H534.146V517.847H538.325V513.896Z" fill="white"/>
<path d="M529.968 521.779H525.789V525.73H529.968V521.779Z" fill="white"/>
<path d="M521.614 521.779H517.431V525.73H521.614V521.779Z" fill="white"/>
<path d="M538.325 521.779H534.146V525.73H538.325V521.779Z" fill="white"/>
<defs>
<linearGradient id="paint0_linear_1_19" x1="568.267" y1="672.711" x2="568.267" y2="672.539" gradientUnits="userSpaceOnUse">
<stop offset="0.02" stop-color="#5F6767"/>
<stop offset="0.48" stop-color="#676B6C"/>
<stop offset="0.51" stop-color="#717576"/>
<stop offset="0.62" stop-color="#878A8B"/>
<stop offset="0.72" stop-color="#949899"/>
<stop offset="0.81" stop-color="#999C9D"/>
</linearGradient>
<linearGradient id="paint1_linear_1_19" x1="529.494" y1="404.743" x2="529.494" y2="656.039" gradientUnits="userSpaceOnUse">
<stop stop-color="white"/>
<stop offset="1" stop-color="white" stop-opacity="0.5"/>
</linearGradient>
<linearGradient id="paint2_linear_1_19" x1="529.444" y1="280.508" x2="529.444" y2="617.873" gradientUnits="userSpaceOnUse">
<stop stop-color="#224058"/>
<stop offset="1" stop-color="#1890CF"/>
</linearGradient>
<linearGradient id="paint3_linear_1_19" x1="529.444" y1="280.508" x2="529.444" y2="617.873" gradientUnits="userSpaceOnUse">
<stop stop-color="#1890CF"/>
<stop offset="1" stop-color="#6DBAE2"/>
</linearGradient>
<linearGradient id="paint4_linear_1_19" x1="529.498" y1="313.245" x2="529.498" y2="601.444" gradientUnits="userSpaceOnUse">
<stop stop-color="white"/>
<stop offset="1" stop-color="white" stop-opacity="0.5"/>
</linearGradient>
<linearGradient id="paint5_linear_1_19" x1="527.871" y1="375.312" x2="527.871" y2="483.177" gradientUnits="userSpaceOnUse">
<stop stop-color="#224058"/>
<stop offset="1" stop-color="#1890CF"/>
</linearGradient>
<linearGradient id="paint6_linear_1_19" x1="527.871" y1="375.312" x2="527.871" y2="483.177" gradientUnits="userSpaceOnUse">
<stop stop-color="#1890CF"/>
<stop offset="1" stop-color="#6DBAE2"/>
</linearGradient>
<linearGradient id="paint7_linear_1_19" x1="528.598" y1="467.736" x2="528.598" y2="518.082" gradientUnits="userSpaceOnUse">
<stop stop-color="#224058"/>
<stop offset="1" stop-color="#1890CF"/>
</linearGradient>
<linearGradient id="paint8_linear_1_19" x1="528.598" y1="467.736" x2="528.598" y2="518.082" gradientUnits="userSpaceOnUse">
<stop stop-color="#1890CF"/>
<stop offset="1" stop-color="#6DBAE2"/>
</linearGradient>
<linearGradient id="paint9_linear_1_19" x1="527.878" y1="496.614" x2="527.878" y2="535.832" gradientUnits="userSpaceOnUse">
<stop stop-color="#224058"/>
<stop offset="1" stop-color="#1890CF"/>
</linearGradient>
<linearGradient id="paint10_linear_1_19" x1="527.878" y1="496.614" x2="527.878" y2="535.832" gradientUnits="userSpaceOnUse">
<stop stop-color="#1890CF"/>
<stop offset="1" stop-color="#6DBAE2"/>
</linearGradient>
<linearGradient id="paint11_linear_1_19" x1="527.878" y1="535.828" x2="527.878" y2="538.378" gradientUnits="userSpaceOnUse">
<stop stop-color="#224058"/>
<stop offset="1" stop-color="#1890CF"/>
</linearGradient>
<linearGradient id="paint12_linear_1_19" x1="527.878" y1="535.828" x2="527.878" y2="538.378" gradientUnits="userSpaceOnUse">
<stop stop-color="#1890CF"/>
<stop offset="1" stop-color="#6DBAE2"/>
</linearGradient>
</defs>
</svg>
