<svg width="1920" height="678" viewBox="0 0 1920 678" fill="none" xmlns="http://www.w3.org/2000/svg">
<path d="M-6 43.0001C435 -101 1257 175.5 1924 43.0001V633C1924 633 1573 734 959 633C345 532 -6 633 -6 633V43.0001Z" fill="#E9F6FC" fill-opacity="0.4"/>
<path d="M-2 631V41C67.1357 63.3432 294.096 182.041 242.419 371.26C201.077 522.635 62.2473 607.493 -2 631Z" fill="#1890CF"/>
<path d="M1510.75 603.202C1637.62 685.651 1877.42 652.492 1926 630.088V32.3329C1926 78.9345 1833.04 98.3563 1785.79 106.58C1728.47 116.556 1685.43 136.972 1669.71 204.232C1632.13 365.1 1550.56 403.569 1505.25 416.796C1440.78 435.616 1383.88 520.753 1510.75 603.202Z" fill="#1890CF"/>
</svg>
