<svg width="1562" height="559" viewBox="0 0 1562 559" fill="none" xmlns="http://www.w3.org/2000/svg">
<mask id="mask0_86_2" style="mask-type:alpha" maskUnits="userSpaceOnUse" x="0" y="0" width="1562" height="559">
<rect width="1562" height="559" rx="10" fill="#1890CF"/>
</mask>
<g mask="url(#mask0_86_2)">
<rect width="1562" height="559" rx="10" fill="#1890CF"/>
<path d="M334 561.314C457.459 509.887 588.018 384.746 1066.96 478.199C1492.93 561.314 1836.64 363.571 1947.46 206" stroke="#60BCFF" stroke-opacity="0.15" stroke-width="4"/>
<path d="M344.909 609.105C468.368 557.678 598.927 432.537 1077.87 525.99C1503.83 609.105 1847.55 411.362 1958.37 253.791" stroke="#60BCFF" stroke-opacity="0.15" stroke-width="4"/>
<path d="M339.714 587.287C463.174 535.86 593.732 410.72 1072.68 504.173C1498.64 587.287 1842.35 389.544 1953.17 231.973" stroke="#60BCFF" stroke-opacity="0.15" stroke-width="4"/>
<path d="M349.064 633C472.524 581.573 603.083 456.433 1082.03 549.886C1507.99 633 1851.7 435.257 1962.52 277.686" stroke="#60BCFF" stroke-opacity="0.15" stroke-width="4"/>
<path d="M798.522 0.686133C675.062 52.1131 544.504 177.254 65.5571 83.8005C-360.404 0.686133 -704.116 198.429 -814.936 356" stroke="#60BCFF" stroke-opacity="0.15" stroke-width="4"/>
<path d="M787.613 -47.1046C664.153 4.32238 533.595 129.463 54.6483 36.0098C-371.313 -47.1046 -715.025 150.638 -825.844 308.209" stroke="#60BCFF" stroke-opacity="0.15" stroke-width="4"/>
<path d="M792.808 -25.2871C669.348 26.1399 538.789 151.28 59.843 57.8273C-366.118 -25.2871 -709.831 172.456 -820.65 330.027" stroke="#60BCFF" stroke-opacity="0.15" stroke-width="4"/>
<path d="M783.457 -71C659.998 -19.573 529.439 105.567 50.4926 12.1144C-375.468 -71 -719.181 126.743 -830 284.314" stroke="#60BCFF" stroke-opacity="0.15" stroke-width="4"/>
<path d="M1846.53 238.058C1720.89 192.239 1540.07 195.828 1251.11 -197.397C994.123 -547.12 607.345 -634.543 419.08 -593.728" stroke="#60BCFF" stroke-opacity="0.15" stroke-width="4"/>
<path d="M1870.89 195.516C1745.24 149.698 1564.43 153.286 1275.47 -239.939C1018.48 -589.662 631.7 -677.085 443.435 -636.269" stroke="#60BCFF" stroke-opacity="0.15" stroke-width="4"/>
<path d="M1859.93 215.083C1734.28 169.264 1553.47 172.853 1264.51 -220.372C1007.52 -570.095 620.739 -657.519 432.474 -616.703" stroke="#60BCFF" stroke-opacity="0.15" stroke-width="4"/>
<path d="M1884.02 175.125C1758.37 129.307 1577.56 132.895 1288.6 -260.33C1031.61 -610.053 644.832 -697.476 456.568 -656.66" stroke="#60BCFF" stroke-opacity="0.15" stroke-width="4"/>
</g>
</svg>
