<svg width="75" height="82" viewBox="0 0 75 82" fill="none" xmlns="http://www.w3.org/2000/svg">
<rect width="75" height="75" rx="12" fill="#E9F6FC"/>
<path d="M38.4512 57.5127C36.1888 57.5127 34.1299 57.1139 32.2744 56.3164C30.4189 55.5189 28.946 54.3633 27.8555 52.8496C26.7812 51.3197 26.2686 49.4723 26.3174 47.3076L26.3662 47.1611H33.2754C33.2754 48.1051 33.487 48.9434 33.9102 49.6758C34.3333 50.4082 34.9274 50.986 35.6924 51.4092C36.4736 51.8324 37.3932 52.0439 38.4512 52.0439C40.0951 52.0439 41.389 51.5801 42.333 50.6523C43.2933 49.7246 43.7734 48.4469 43.7734 46.8193C43.7734 45.1592 43.3014 43.8652 42.3574 42.9375C41.4134 42.0098 39.9893 41.5459 38.085 41.5459H34.2275V36.1992H38.2314C39.3708 36.1992 40.3066 36.0039 41.0391 35.6133C41.7715 35.2064 42.3167 34.6367 42.6748 33.9043C43.0329 33.1719 43.2119 32.3092 43.2119 31.3164C43.2119 29.819 42.805 28.6309 41.9912 27.752C41.1774 26.873 39.9974 26.4336 38.4512 26.4336C37.5234 26.4336 36.7015 26.6208 35.9854 26.9951C35.2692 27.3532 34.7077 27.8659 34.3008 28.5332C33.9102 29.2005 33.7148 29.9736 33.7148 30.8525H26.8057L26.7568 30.7061C26.708 28.818 27.1719 27.1416 28.1484 25.6768C29.125 24.1956 30.5003 23.04 32.2744 22.21C34.0648 21.3636 36.1074 20.9404 38.4023 20.9404C41.9993 20.9404 44.8883 21.8193 47.0693 23.5771C49.2503 25.3187 50.3408 27.7926 50.3408 30.999C50.3408 32.6592 49.877 34.1566 48.9492 35.4912C48.0378 36.8258 46.6706 37.9163 44.8477 38.7627C46.8171 39.4626 48.3145 40.5368 49.3398 41.9854C50.3815 43.4339 50.9023 45.1185 50.9023 47.0391C50.9023 49.2038 50.3652 51.0674 49.291 52.6299C48.2168 54.1924 46.7357 55.3968 44.8477 56.2432C42.9759 57.0895 40.8438 57.5127 38.4512 57.5127Z" fill="#1890CF"/>
</svg>
